<?xml version="1.0" encoding="UTF-8"?>
<svg width="220px" height="25px" viewBox="0 0 220 25" version="1.1" xmlns="http://www.w3.org/2000/svg" xmlns:xlink="http://www.w3.org/1999/xlink">
    <!-- Generator: Sketch 41.2 (35397) - http://www.bohemiancoding.com/sketch -->
    <title>Group 8</title>
    <desc>Created with Sketch.</desc>
    <defs></defs>
    <g id="Page-1" stroke="none" stroke-width="1" fill="none" fill-rule="evenodd">
        <g id="Colors---UI" transform="translate(-20.000000, -42.000000)" fill="#333333">
            <g id="Group-8" transform="translate(20.000000, 38.000000)">
                <g id="Group-5" transform="translate(0.000000, 4.153846)">
                    <g id="Group-2" transform="translate(0.521635, 0.000000)">
                        <path d="M36.6573427,17.5524476 C36.2237762,18.2377622 35.6503497,18.7692308 34.965035,19.1468531 C34.2797203,19.5244755 33.4685315,19.7062937 32.5314685,19.7062937 C30.951049,19.7062937 29.7202797,19.1188811 28.8391608,17.9440559 C27.9440559,16.7692308 27.5104895,15.2027972 27.5104895,13.2307692 L27.5104895,12.979021 C27.5104895,10.8811189 27.958042,9.2027972 28.8391608,7.93006993 C29.7342657,6.67132867 30.965035,6.04195804 32.5594406,6.04195804 C33.4825175,6.04195804 34.2657343,6.23776224 34.951049,6.61538462 C35.6223776,7.00699301 36.1818182,7.55244755 36.6293706,8.26573427 L36.6293706,1.70629371 L34.6433566,1.53846154 L34.6433566,0.461538462 L36.6293706,0.461538462 L38.0839161,0.461538462 L38.0839161,18.2237762 L40.0699301,18.3776224 L40.0699301,19.4545455 L36.7832168,19.4545455 L36.6573427,17.5524476 Z M28.979021,13.2307692 C28.979021,14.8251748 29.3006993,16.0839161 29.9300699,17.034965 C30.5734266,17.972028 31.5244755,18.4475524 32.8111888,18.4475524 C33.7482517,18.4475524 34.5314685,18.2377622 35.1608392,17.8181818 C35.7902098,17.3986014 36.2797203,16.8111888 36.6293706,16.0839161 L36.6293706,9.83216783 C36.3076923,9.09090909 35.8321678,8.47552448 35.2167832,8 C34.6013986,7.52447552 33.8041958,7.3006993 32.8391608,7.3006993 C31.5524476,7.3006993 30.5874126,7.83216783 29.9440559,8.88111888 C29.3006993,9.93006993 28.979021,11.3006993 28.979021,12.979021 L28.979021,13.2307692 L28.979021,13.2307692 Z" id="Shape"></path>
                        <path d="M51.3986014,19.4545455 C51.3006993,19.006993 51.2307692,18.6293706 51.1888112,18.2937063 C51.1468531,17.972028 51.1328671,17.6363636 51.1328671,17.3146853 C50.6433566,18 50,18.5734266 49.1888112,19.034965 C48.3776224,19.4825175 47.4685315,19.7202797 46.4475524,19.7202797 C45.1608392,19.7202797 44.1538462,19.3846154 43.4545455,18.7272727 C42.7552448,18.0559441 42.3916084,17.1608392 42.3916084,16.027972 C42.3916084,14.8111888 42.9090909,13.8461538 43.958042,13.1328671 C45.006993,12.4195804 46.4195804,12.0559441 48.2237762,12.0559441 L51.1328671,12.0559441 L51.1328671,10.2937063 C51.1328671,9.35664336 50.8251748,8.61538462 50.2237762,8.08391608 C49.6223776,7.55244755 48.7692308,7.28671329 47.6923077,7.28671329 C46.965035,7.28671329 46.2937063,7.38461538 45.6923077,7.58041958 C45.0909091,7.77622378 44.5874126,8.05594406 44.1818182,8.39160839 L44.0559441,10.1538462 L42.8531469,10.1538462 L42.8671329,7.62237762 C43.4825175,7.14685315 44.2097902,6.76923077 45.048951,6.47552448 C45.9020979,6.18181818 46.7972028,6.04195804 47.7622378,6.04195804 C49.2167832,6.04195804 50.3776224,6.40559441 51.2727273,7.14685315 C52.1538462,7.88811189 52.6013986,8.95104895 52.6013986,10.3216783 L52.6013986,16.7972028 C52.6013986,17.0629371 52.6013986,17.3286713 52.6153846,17.5664336 C52.6293706,17.8181818 52.6573427,18.0559441 52.6993007,18.2937063 L54.013986,18.3776224 L54.013986,19.4545455 L51.3986014,19.4545455 L51.3986014,19.4545455 Z M46.6013986,18.4195804 C47.6503497,18.4195804 48.5874126,18.1818182 49.3846154,17.6923077 C50.1818182,17.2027972 50.7692308,16.5734266 51.1188811,15.8041958 L51.1188811,13.1608392 L48.1818182,13.1608392 C46.8531469,13.1608392 45.8041958,13.4405594 45.006993,13.986014 C44.2097902,14.5314685 43.8181818,15.2307692 43.8181818,16.0559441 C43.8181818,16.7552448 44.0699301,17.3286713 44.5594406,17.7622378 C45.0769231,18.1958042 45.7482517,18.4195804 46.6013986,18.4195804 Z" id="Shape"></path>
                        <path d="M55.6783217,7.35664336 L55.6783217,6.27972028 L58.8811189,6.27972028 L59.0629371,8.32167832 C59.5104895,7.59440559 60.0839161,7.02097902 60.7692308,6.62937063 C61.4685315,6.23776224 62.2797203,6.02797203 63.2027972,6.02797203 C64.7832168,6.02797203 66.027972,6.65734266 66.9090909,7.91608392 C67.8041958,9.17482517 68.2517483,10.8531469 68.2517483,12.965035 L68.2517483,13.2167832 C68.2517483,15.1888112 67.8041958,16.7552448 66.9090909,17.9300699 C66.013986,19.1048951 64.7832168,19.6923077 63.2167832,19.6923077 C62.2937063,19.6923077 61.4825175,19.5104895 60.7832168,19.1608392 C60.0839161,18.8111888 59.5244755,18.3076923 59.0909091,17.6643357 L59.0909091,23.2587413 L61.0769231,23.4125874 L61.0769231,24.4895105 L55.6643357,24.4895105 L55.6643357,23.4125874 L57.6503497,23.2587413 L57.6503497,7.52447552 L55.6783217,7.35664336 Z M66.7972028,12.979021 C66.7972028,11.3006993 66.4615385,9.94405594 65.8041958,8.8951049 C65.1328671,7.84615385 64.1678322,7.31468531 62.8811189,7.31468531 C61.9020979,7.31468531 61.1048951,7.55244755 60.4895105,8.01398601 C59.8741259,8.47552448 59.4125874,9.09090909 59.1048951,9.83216783 L59.1048951,16.1678322 C59.4405594,16.8951049 59.9160839,17.4545455 60.5454545,17.8741259 C61.1748252,18.2937063 61.958042,18.4895105 62.8951049,18.4895105 C64.1678322,18.4895105 65.1328671,18.013986 65.8041958,17.048951 C66.4615385,16.0979021 66.7972028,14.8251748 66.7972028,13.2447552 L66.7972028,12.979021 L66.7972028,12.979021 Z" id="Shape"></path>
                        <path d="M80.3076923,17.2867133 C79.8881119,18.0559441 79.3286713,18.6573427 78.6153846,19.0769231 C77.9020979,19.4965035 77.048951,19.7062937 76.0839161,19.7062937 C74.6993007,19.7062937 73.6083916,19.2307692 72.8251748,18.2937063 C72.041958,17.3566434 71.6503497,15.8881119 71.6503497,13.9160839 L71.6503497,7.52447552 L70.013986,7.37062937 L70.013986,6.29370629 L71.6503497,6.29370629 L73.1048951,6.29370629 L73.1048951,13.9440559 C73.1048951,15.5524476 73.3846154,16.6993007 73.9300699,17.3986014 C74.4755245,18.0979021 75.2587413,18.4475524 76.2657343,18.4475524 C77.3706294,18.4475524 78.2517483,18.2097902 78.8951049,17.7202797 C79.5524476,17.2307692 80.013986,16.5594406 80.2797203,15.7062937 L80.2797203,7.52447552 L78.4055944,7.37062937 L78.4055944,6.29370629 L80.2797203,6.29370629 L81.7342657,6.29370629 L81.7342657,18.2377622 L83.4965035,18.3916084 L83.4965035,19.4685315 L80.4475524,19.4685315 L80.3076923,17.2867133 Z" id="Shape"></path>
                        <polygon id="Shape" points="85.3286713 1.53846154 85.3286713 0.461538462 88.7552448 0.461538462 88.7552448 18.2237762 90.7412587 18.3776224 90.7412587 19.4545455 85.3286713 19.4545455 85.3286713 18.3776224 87.3146853 18.2237762 87.3146853 1.70629371"></polygon>
                        <path d="M102.601399,10.3496503 L101.412587,10.3496503 L101.244755,8.48951049 C100.881119,8.11188811 100.41958,7.81818182 99.8601399,7.59440559 C99.3006993,7.38461538 98.6713287,7.27272727 97.9440559,7.27272727 C96.8811189,7.27272727 96.0839161,7.4965035 95.5524476,7.95804196 C95.020979,8.41958042 94.7552448,8.95104895 94.7552448,9.56643357 C94.7552448,10.1818182 94.979021,10.6853147 95.4405594,11.0769231 C95.9020979,11.4685315 96.8111888,11.8181818 98.1818182,12.1258741 C99.7482517,12.4755245 100.923077,12.951049 101.706294,13.5524476 C102.48951,14.1538462 102.881119,14.979021 102.881119,16.013986 C102.881119,17.1048951 102.433566,18 101.552448,18.6713287 C100.657343,19.3426573 99.4825175,19.6923077 98.027972,19.6923077 C97.048951,19.6923077 96.1678322,19.5524476 95.3706294,19.2867133 C94.5734266,19.020979 93.8741259,18.6293706 93.3006993,18.1398601 L93.3006993,15.4825175 L94.4755245,15.4825175 L94.6853147,17.3566434 C95.0769231,17.7482517 95.5664336,18.027972 96.1678322,18.1958042 C96.7692308,18.3636364 97.3846154,18.4615385 98.041958,18.4615385 C99.0909091,18.4615385 99.9300699,18.2237762 100.531469,17.7622378 C101.146853,17.3006993 101.440559,16.7412587 101.440559,16.0839161 C101.440559,15.4685315 101.188811,14.9230769 100.685315,14.4615385 C100.181818,14 99.2587413,13.6223776 97.9440559,13.3286713 C96.3776224,12.993007 95.2167832,12.5314685 94.4615385,11.972028 C93.7062937,11.4125874 93.3286713,10.6153846 93.3286713,9.60839161 C93.3286713,8.6013986 93.7482517,7.74825175 94.6013986,7.06293706 C95.4545455,6.36363636 96.5734266,6.02797203 97.972028,6.02797203 C98.9370629,6.02797203 99.8181818,6.18181818 100.615385,6.47552448 C101.412587,6.76923077 102.06993,7.17482517 102.573427,7.67832168 L102.601399,10.3496503 Z" id="Shape"></path>
                        <path d="M111.328671,19.7062937 C109.678322,19.7062937 108.307692,19.1048951 107.216783,17.8881119 C106.125874,16.6713287 105.58042,15.1328671 105.58042,13.2587413 L105.58042,12.5874126 C105.58042,10.6993007 106.125874,9.14685315 107.202797,7.9020979 C108.27972,6.65734266 109.594406,6.04195804 111.132867,6.04195804 C112.741259,6.04195804 114.013986,6.55944056 114.937063,7.58041958 C115.86014,8.6013986 116.321678,9.97202797 116.321678,11.6643357 L116.321678,12.9090909 L107.020979,12.9090909 L107.020979,13.2587413 C107.020979,14.7412587 107.412587,15.972028 108.20979,16.979021 C109.006993,17.986014 110.041958,18.4755245 111.314685,18.4755245 C112.20979,18.4755245 112.993007,18.3496503 113.622378,18.0979021 C114.265734,17.8461538 114.811189,17.4825175 115.258741,17.020979 L115.874126,18.013986 C115.384615,18.5314685 114.755245,18.951049 114,19.2447552 C113.286713,19.5524476 112.377622,19.7062937 111.328671,19.7062937 Z M111.132867,7.27272727 C110.055944,7.27272727 109.160839,7.67832168 108.41958,8.5034965 C107.678322,9.32867133 107.258741,10.3636364 107.132867,11.5944056 L107.160839,11.6503497 L114.881119,11.6503497 L114.881119,11.2867133 C114.881119,10.1398601 114.545455,9.18881119 113.874126,8.41958042 C113.202797,7.66433566 112.293706,7.27272727 111.132867,7.27272727 Z" id="Shape"></path>
                        <path d="M22.4615385,11.3426573 C22.4615385,5.13286713 17.4265734,0.111888112 11.2307692,0.111888112 C5.03496503,0.111888112 0,5.13286713 0,11.3426573 C0,13.3706294 0.531468531,15.2727273 1.46853147,16.9090909 C2.11188811,15.3286713 3.04895105,13.4545455 3.66433566,12.993007 C3.66433566,12.993007 5.09090909,11.7062937 6.55944056,12.1818182 C6.55944056,12.1818182 12.9230769,14.4615385 14.6293706,16.5314685 C14.6293706,16.5314685 15.5244755,17.8321678 15.1468531,19.1468531 C14.993007,19.7062937 14.4335664,21.048951 13.8041958,22.2797203 C18.7692308,21.1188811 22.4615385,16.6573427 22.4615385,11.3426573 Z M15.7622378,14.041958 C15.6643357,14.1118881 15.5664336,14.1678322 15.4685315,14.2097902 C15.1048951,14.3356643 14.6853147,14.2237762 14.4195804,13.9020979 C13.4265734,12.6853147 9.59440559,10.7272727 8.1958042,10.7272727 C7.66433566,10.7272727 7.24475524,10.3076923 7.23076923,9.77622378 C7.23076923,9.24475524 7.65034965,8.82517483 8.18181818,8.81118881 C10.2937063,8.7972028 14.6573427,11.1468531 15.9020979,12.6853147 C16.2377622,13.1188811 16.1818182,13.7202797 15.7622378,14.041958 Z M18.4615385,12.9230769 C15.8741259,9.73426573 9.48251748,6.92307692 6.26573427,6.93706294 C5.79020979,6.93706294 5.3986014,6.55944056 5.3986014,6.08391608 C5.3986014,5.60839161 5.77622378,5.21678322 6.25174825,5.21678322 C9.93006993,5.2027972 16.7972028,8.15384615 19.7902098,11.8321678 C20.0839161,12.1958042 20.027972,12.7412587 19.6643357,13.034965 C19.5804196,13.1048951 19.4965035,13.1468531 19.3986014,13.1888112 C19.0769231,13.3146853 18.6993007,13.2167832 18.4615385,12.9230769 Z" id="Shape"></path>
                    </g>
                </g>
                <text id="Styleguide" font-family="Roboto-Bold, Roboto" font-size="20" font-weight="bold" letter-spacing="0.0119999992">
                    <tspan x="124.829327" y="21.7692308">Styleguide</tspan>
                </text>
            </g>
        </g>
    </g>
</svg>